<svg version="1.1" xmlns="http://www.w3.org/2000/svg" style="display: block;" viewBox="0 0 2048 2048" width="1024" height="1024" preserveAspectRatio="none">
<path transform="translate(0,0)" fill="rgb(255,255,255)" d="M 0 0 L 2048 0 L 2048 2048 L 0 2048 L 0 0 z"/>
<path transform="translate(0,0)" fill="rgb(13,137,110)" d="M 973.324 321.208 C 992.141 320.017 999.532 324.287 1014.95 333.484 C 1040.92 319.84 1056.07 319.839 1080.27 337.899 C 1099.78 352.463 1109.65 345.665 1130.42 344.758 C 1148.04 343.989 1163.54 364.23 1174.81 376.647 C 1204.15 380.389 1220.29 387.68 1222.19 420.032 C 1236.88 434.729 1250.77 437.884 1262.31 453.297 C 1270.15 461.356 1266.34 482.394 1273.29 488.91 C 1294.39 508.716 1305.64 498.773 1296.63 535.793 C 1309.43 550.95 1317.91 557.559 1310.61 578.443 C 1327.29 608.791 1314.34 634.69 1291.65 657.164 C 1253.24 695.206 1207.33 675.123 1160.02 672.965 C 1108.17 668.781 1061.98 704.91 1044.86 753.455 C 1022.56 816.668 1019.16 901.95 1017.69 968.78 C 1017.53 981.578 1017.88 995.16 1018 1008.02 C 1012.58 1007.52 1007.81 1007.7 1002.4 1007.81 C 999.933 982.55 1000.8 958.128 999.63 933.217 C 997.955 890.634 995.084 848.656 989.123 806.537 C 983.351 765.754 973.979 736.999 945.211 706.071 C 934.213 694.247 923.571 688.123 910.692 679.357 C 866.734 649.336 822.154 671.122 774.014 670.25 C 727.32 669.405 695.428 633.005 699.29 586.669 C 701.067 565.359 703.046 543.718 720.002 528.616 C 701.145 497.887 728.973 485.707 752.022 475.479 C 750.286 437.652 762.294 424.486 799.057 417.967 C 797.611 385.279 810.02 377.534 840.727 369.33 C 844.78 368.248 851.278 369.02 855.585 369.307 C 882.308 328.115 901.833 347.584 938.065 341.504 C 948.68 339.723 954.481 324.943 973.324 321.208 z"/>
<path transform="translate(0,0)" fill="rgb(255,255,255)" d="M 985.048 554.102 C 981.762 505.056 958.298 427.945 935.328 385.08 C 931.189 377.332 926.529 369.873 921.381 362.756 C 918.793 359.245 914.401 354.341 912.494 350.77 C 948.869 378.122 982.876 489.268 990.301 534.054 C 994.862 561.56 996.898 597.929 1005.5 624.53 C 1005.81 610.395 1006.32 595.974 1006.27 581.855 C 1006.03 520.334 1008.73 458.637 1005.85 397.152 L 1006.29 392.026 L 1009.4 395.33 C 1010.94 409.142 1011.08 428.556 1011.46 442.585 C 1012.29 465.202 1012.78 487.83 1012.92 510.461 C 1013 529.339 1012.43 550.386 1013.03 569.014 C 1018.84 551.953 1021.42 529.851 1026.78 511.82 C 1038.65 471.859 1066.79 393.592 1098.12 367.235 C 1086.68 384.217 1077.16 396.97 1068.27 416.064 C 1044.05 468.126 1021.61 545.846 1018.78 602.648 C 1025.1 581.636 1028.93 560.246 1036.45 539.3 C 1053.33 492.284 1099.36 428.137 1140.92 400.158 L 1142.02 401.884 C 1133.61 407.4 1121.68 418.937 1114.29 426.198 C 1073.55 466.209 1041.45 519.059 1029.4 575.142 C 1025.98 591.106 1022.76 610.896 1021.28 627.094 C 1029.14 608.395 1036.73 586.204 1046.36 568.41 C 1073.35 518.561 1126.52 448.551 1171.42 414.713 L 1172.28 416.322 C 1117.71 462.879 1072.14 528.112 1044.07 593.991 C 1039.54 604.613 1034 617.815 1030.9 628.8 C 1052.98 592.597 1085.91 548.865 1112.95 516.116 C 1131.7 493.407 1176.82 447.505 1202.02 432.29 L 1202.97 433.894 C 1153.68 472.497 1115.62 518.41 1080.11 569.642 C 1057.32 602.543 1045.07 623.953 1031.81 661.801 C 1052.1 635.944 1073.14 608.725 1097.01 586.078 C 1141.23 544.114 1213.58 502.411 1276.15 506.505 C 1270.2 507.845 1262.85 507.832 1256.53 508.344 C 1247.42 509.151 1238.4 510.768 1229.58 513.173 C 1170.92 529.531 1103.29 578.364 1069.07 629.135 C 1116.81 581.454 1180.07 558.196 1245.88 549.357 C 1247.78 550.171 1249.13 550.624 1250.86 551.759 C 1185.13 554.919 1100.61 594.506 1061.99 648.784 C 1115.68 613.85 1183.73 589.633 1248.01 603.558 C 1260.44 606.363 1272.53 610.52 1284.06 615.956 L 1282.76 617.21 C 1243.88 597.795 1184.36 600.123 1144.44 614.719 C 1133.4 618.756 1105.19 628.684 1097.04 636.131 C 1095.27 638.729 1096.28 637.556 1092.11 638.734 C 1088.15 641.023 1083.86 643.602 1079.82 645.647 C 1029.58 671.045 1015.6 724.755 1009.84 776.126 C 1000.66 727.319 990.651 668.578 939.598 646.527 L 938.168 645.896 L 937.305 645.527 L 939.617 643.162 C 915.948 623.297 868.619 600.442 837.87 598.8 C 837.988 596.385 839.188 594.543 840.26 592.191 C 880.305 601.855 897.718 607.301 933.974 628.659 L 937.905 625.691 C 893.411 578.8 808.953 539.557 745.176 531.567 L 745.085 530.268 C 819.395 539.231 888.99 571.384 943.984 622.157 C 933.072 605.472 920.634 589.836 906.832 575.45 C 873.204 540.596 800.047 494.682 751.149 493.753 L 751.112 492.166 C 856.803 505.731 925.655 574.665 983.06 658.248 C 973.24 627.262 965.589 614.193 949.213 586.405 C 912.122 523.467 868.017 479.295 807.304 439.199 C 821.944 445.125 835.088 454.75 847.878 463.985 C 907.603 507.112 959.787 575.913 991.301 642.162 C 989.606 619.541 985.36 606.512 979.639 584.856 C 961.238 515.197 927.631 447.927 882.13 392.036 C 880.947 390.583 876.743 386.474 877.633 385.425 C 910.151 413.954 967.548 514.591 980.678 556.678 C 982.556 555.259 982.904 555.126 985.048 554.102 z"/>
<path transform="translate(0,0)" fill="rgb(55,148,138)" d="M 980.678 556.678 C 982.556 555.259 982.904 555.126 985.048 554.102 C 986.384 560.976 987.897 572.47 987.919 579.425 C 985.95 572.091 983.66 563.687 980.678 556.678 z"/>
<path transform="translate(0,0)" fill="rgb(55,148,138)" d="M 937.905 625.691 C 943.789 631.09 947.511 635.823 952.604 642.012 C 945.956 636.355 941.388 633.433 933.974 628.659 L 937.905 625.691 z"/>
<path transform="translate(0,0)" fill="rgb(218,237,234)" d="M 837.907 594.522 C 825.034 591.273 812.075 586.763 799.031 583.733 C 773.217 577.737 750.374 576.466 724.248 576.679 L 723.516 575.908 C 753.791 568.394 810.451 583.612 840.26 592.191 C 839.188 594.543 837.988 596.385 837.87 598.8 C 786.182 598.728 765.359 604.134 718.676 624.942 C 752.449 602.215 797.992 595.321 837.907 594.522 z"/>
<path transform="translate(0,0)" fill="rgb(218,237,234)" d="M 937.305 645.527 C 883.511 622.946 826.825 636.842 775.06 656.882 C 771.226 658.366 763.647 661.337 759.791 660.996 C 765.572 659.818 767.288 657.844 772.325 655.923 C 813.982 640.032 858.564 624.917 903.725 632.209 C 916.257 634.233 927.854 638.564 939.617 643.162 L 937.305 645.527 z"/>
<path transform="translate(0,0)" fill="rgb(218,237,234)" d="M 822.829 387.067 C 824.233 387.634 825.599 388.291 826.917 389.034 C 834.928 393.507 846.829 404.062 853.557 410.171 C 884.95 438.68 909.883 470.963 930.485 507.951 C 934.779 515.66 941.136 526.99 943.411 535.301 C 936.384 524.214 928.431 508.518 920.925 496.303 C 892.259 449.651 864.426 421.269 822.829 387.067 z"/>
<path transform="translate(0,0)" fill="rgb(218,237,234)" d="M 1097.04 636.131 C 1139.03 627.501 1182.62 648.783 1220.81 658.92 L 1218.59 660.297 C 1214.56 657.739 1200.65 654.032 1195.42 652.327 C 1155.48 639.314 1133.14 637.928 1092.11 638.734 C 1096.28 637.556 1095.27 638.729 1097.04 636.131 z"/>
<path transform="translate(0,0)" fill="rgb(171,222,216)" d="M 1114.64 541.335 C 1147.14 512.663 1173.42 492.075 1212.24 472.115 C 1223.04 466.561 1230.32 460.402 1242.97 457.291 L 1243.52 457.672 L 1241.92 458.308 C 1235.91 460.76 1225.84 466.66 1219.7 469.901 C 1181.34 490.163 1149.17 514.127 1116.09 541.997 L 1114.64 541.335 z"/>
<path transform="translate(0,0)" fill="rgb(59,168,142)" d="M 764.425 447.883 C 780.749 450.659 853.476 501.044 861.282 513.175 C 856.42 511.966 822.999 484.19 815.544 478.69 C 801.052 467.998 776.531 457.983 764.425 447.883 z"/>
<path transform="translate(0,0)" fill="rgb(218,237,234)" d="M 1053.69 335.925 C 1054.87 337.377 1051.53 351.748 1050.95 354.691 C 1045.75 380.946 1040.71 408.336 1039.58 435.132 L 1038.92 434.49 C 1034.73 421.752 1048.73 351.804 1053.69 335.925 z"/>
<path transform="translate(0,0)" fill="rgb(218,237,234)" d="M 965.013 334.666 C 968.588 342.231 984.785 424.407 984.643 433.591 C 984.397 431.025 980.518 416.042 979.728 411.765 C 975.261 387.562 966.93 358.847 965.013 334.666 z"/>
<path transform="translate(0,0)" fill="rgb(147,198,183)" d="M 1132.48 361.003 C 1132.74 363.468 1127.54 369.153 1125.75 371.437 C 1117.04 382.353 1108.94 393.739 1101.48 405.545 C 1097.37 411.969 1091.67 422.49 1087.3 427.954 C 1089.08 414.802 1122 372.316 1132.48 361.003 z"/>
<path transform="translate(0,0)" fill="rgb(147,198,183)" d="M 1245.88 549.357 C 1265.77 546.693 1284.22 550.77 1303.06 555.844 L 1303.44 556.589 C 1294.17 555.352 1289.19 553.464 1278.78 552.597 C 1269.33 551.811 1259.19 552.426 1250.86 551.759 C 1249.13 550.624 1247.78 550.171 1245.88 549.357 z"/>
<path transform="translate(0,0)" fill="rgb(147,198,183)" d="M 1005.85 397.152 C 1004.26 388.583 1004.39 362.267 1006.29 353.972 L 1006.02 356.06 L 1006.98 356.685 C 1007.34 361.238 1007.48 366.234 1007.7 370.833 C 1008.3 378.826 1009.09 387.367 1009.4 395.33 L 1006.29 392.026 L 1005.85 397.152 z"/>
<path transform="translate(0,0)" fill="rgb(218,237,234)" d="M 1006.29 392.026 C 1005.68 386.623 1005.62 375.756 1006.56 370.463 L 1007.7 370.833 C 1008.3 378.826 1009.09 387.367 1009.4 395.33 L 1006.29 392.026 z"/>
<path transform="translate(0,0)" fill="rgb(147,198,183)" d="M 1140.92 400.158 C 1144.65 397.009 1164.31 384.439 1168.56 383.065 C 1164.77 386.896 1147.05 398.527 1142.02 401.884 L 1140.92 400.158 z"/>
<path transform="translate(0,0)" fill="rgb(59,168,142)" d="M 1116.09 541.997 C 1112.32 545.589 1100.86 556.815 1096.38 558.391 C 1101.82 552.078 1107.77 546.103 1114.64 541.335 L 1116.09 541.997 z"/>
<path transform="translate(0,0)" fill="rgb(147,198,183)" d="M 1220.81 658.92 C 1229.06 661.498 1237.28 664.131 1245.49 666.821 C 1236.99 666.27 1226.65 662.894 1218.59 660.297 L 1220.81 658.92 z"/>
<path transform="translate(0,0)" fill="rgb(171,222,216)" d="M 1202.02 432.29 C 1206.65 428.435 1213.11 423.047 1218.55 420.588 C 1214.12 425.665 1208.33 429.747 1202.97 433.894 L 1202.02 432.29 z"/>
<path transform="translate(0,0)" fill="rgb(59,168,142)" d="M 1185.14 404.172 C 1187.43 401.905 1189.43 400.297 1191.91 398.27 L 1193.58 399.643 L 1194.05 399.022 L 1192.71 397.836 L 1191.67 398.531 L 1194.36 397.387 C 1193.95 401.321 1187.25 405.091 1183.97 407.32 L 1185.14 404.172 z"/>
<path transform="translate(0,0)" fill="rgb(171,222,216)" d="M 1171.42 414.713 C 1174.34 412.01 1181.66 406.788 1185.14 404.172 L 1183.97 407.32 C 1180 410.226 1176.1 413.227 1172.28 416.322 L 1171.42 414.713 z"/>
<path transform="translate(0,0)" fill="rgb(147,198,183)" d="M 1284.06 615.956 C 1288.57 617.812 1290.36 618.306 1294.17 621.187 L 1293.58 621.759 C 1288.87 620.329 1287.24 619.456 1282.76 617.21 L 1284.06 615.956 z"/>
<path transform="translate(0,0)" fill="rgb(147,198,183)" d="M 751.149 493.753 C 748.356 493.466 742.912 493.233 741.389 490.778 C 744.863 490.016 747.599 491.206 751.112 492.166 L 751.149 493.753 z"/>
<path transform="translate(0,0)" fill="rgb(147,198,183)" d="M 745.176 531.567 C 740.918 531.396 740.213 531.468 736.226 530.223 L 735.988 529.215 C 739.843 528.651 741.347 529.321 745.085 530.268 L 745.176 531.567 z"/>
<path transform="translate(0,0)" fill="rgb(13,89,111)" d="M 531.756 673.11 C 556.879 672.148 553.438 692.999 556.203 712.055 C 559.674 735.398 562.91 758.776 565.91 782.184 L 587.731 941.651 L 609.254 1095.01 C 614.129 1128.9 620.313 1164.67 622.819 1198.67 C 627.319 1185.83 630.366 1169.09 634.249 1155.46 C 652.984 1089.72 667.836 1022.85 685.998 956.949 C 688.899 946.423 691.753 927.454 700.95 921.332 C 706.063 917.93 717.429 919.713 721.381 924.88 C 740.183 955.571 756.67 995.716 772.817 1027.14 L 942.166 1026.41 C 943.264 1023.24 944.531 1020.12 945.962 1017.09 C 954.993 997.714 970.791 987.595 990.112 980.626 C 990.074 991.478 990.208 999.833 990.952 1010.74 C 948.116 1034.43 969.294 1088.1 1011.6 1083.73 C 1022.9 1082.49 1033.19 1076.64 1040.03 1067.56 C 1046.36 1059.25 1048.96 1048.68 1047.19 1038.39 C 1045.07 1026.25 1037.88 1017.2 1028.21 1010.11 L 1029.09 981.149 C 1032.17 982.265 1035.2 983.52 1038.17 984.909 C 1056.35 993.421 1065.44 1008.9 1071.92 1026.96 L 1196.62 1027 C 1212.96 1027 1251.94 1027.91 1266.03 1025.6 C 1269.52 1015.98 1272.59 1002.66 1275.66 992.578 C 1283.03 968.379 1289.34 943.884 1295.9 919.483 L 1339.46 762.61 C 1345.87 739.409 1352.98 707.565 1362.19 684.931 C 1367.95 670.772 1393.79 675.229 1396.72 693.421 C 1398.64 705.362 1400.49 718.863 1402.09 731.725 C 1404.78 753.68 1407.69 775.607 1410.82 797.502 L 1447.7 1079.89 L 1457.48 1155.94 C 1459.36 1171.14 1460.93 1189.07 1463.92 1203.88 C 1464.46 1200.54 1465.08 1197.22 1465.78 1193.92 C 1479.76 1133.03 1494.5 1072.32 1510.01 1011.8 C 1513.75 996.949 1517.4 982.067 1520.95 967.162 C 1523.48 956.434 1526.95 931.768 1537.07 925.719 C 1544.41 921.335 1555.18 921.394 1560.16 929.816 C 1578.9 961.55 1591.8 995.955 1609.98 1028.19 C 1695.26 1028.97 1780.54 1028.97 1865.82 1028.19 C 1866.64 1025.88 1867.5 1023.58 1868.39 1021.3 C 1875.02 1004.47 1887.53 990.744 1904.31 983.683 C 1921.66 976.332 1941.27 976.402 1958.57 983.876 C 1993.21 998.459 2009.22 1038.69 1994.01 1072.93 C 1986.45 1089.56 1972.64 1102.54 1955.58 1109.07 C 1917.15 1123.62 1879.57 1101.45 1866.19 1063.92 L 1678.13 1063.6 C 1652.72 1063.5 1610.93 1065.23 1586.36 1060.98 C 1576.24 1059.23 1557.82 1016.96 1552.31 1005.93 C 1546.19 1030.94 1539.81 1055.89 1533.18 1080.77 C 1527.74 1099.95 1524.25 1120.2 1519.16 1139.54 C 1506.88 1185.76 1495.5 1232.17 1484.11 1278.61 C 1480.74 1292.35 1477.91 1319.26 1462.48 1322.73 C 1457.34 1323.87 1451.96 1322.85 1447.59 1319.91 C 1435.74 1312 1434.93 1281.1 1433.26 1267.55 C 1430.85 1247.21 1428.22 1226.9 1425.37 1206.61 L 1389.44 930.314 L 1379.23 853.809 C 1377.02 836.38 1374.74 812.13 1370.76 795.592 L 1370.44 794.312 C 1359.65 841.954 1343.86 892.023 1330.43 939.336 L 1310.26 1009.54 C 1306.55 1022.66 1303.29 1035.93 1299.12 1048.9 C 1296.71 1056.38 1292.57 1062.63 1284.1 1063.12 C 1260.45 1064.48 1236.46 1063.9 1212.74 1063.87 L 1073.51 1063.95 C 1072.59 1066.45 1071.59 1068.91 1070.51 1071.35 C 1063.01 1088.13 1049.13 1101.24 1031.95 1107.76 C 1014.52 1114.55 995.087 1114.07 978.015 1106.42 C 958.07 1097.36 948.185 1083.76 940.733 1063.89 L 824.364 1063.87 C 803.463 1063.91 774.296 1065.27 753.572 1062 C 746.384 1060.87 736.888 1039.34 732.917 1031.8 C 727.248 1020.84 721.228 1010.06 714.866 999.49 C 695.971 1076.1 676.26 1152.51 655.737 1228.7 C 651.536 1245.4 647.452 1262.14 643.484 1278.9 C 640.505 1291.25 638.347 1314.08 624.681 1316.85 C 612.098 1319.39 601.873 1314.06 599.59 1301.01 C 596.861 1285.41 595.038 1269.95 592.787 1254.41 L 579.559 1164.58 L 543.801 915.04 C 538.67 880.924 533.984 839.612 527.239 806.441 C 524.157 821.939 519.119 837.115 514.89 852.376 L 495 925.916 L 471.722 1011.88 C 457.654 1063.54 466.356 1062.16 409.516 1062.77 C 390.036 1063.03 370.554 1063.17 351.072 1063.19 L 182.408 1063.39 C 181.36 1066.85 180.088 1070.24 178.601 1073.53 C 162.875 1108.57 119.229 1123.33 84.9935 1106.72 C 51.292 1090.36 37.1644 1050.87 53.3293 1017.08 C 61.2287 1000.74 75.2848 988.197 92.4171 982.2 C 130.602 969.215 169.352 990.479 181.731 1028.36 C 263.683 1028.88 345.343 1027.6 427.457 1028.71 L 514.586 701.562 C 518.212 688.238 519.601 680.053 531.756 673.11 z"/>
<path transform="translate(0,0)" fill="rgb(255,255,255)" d="M 108.762 1006.82 C 130.244 1003.57 150.295 1018.34 153.558 1039.82 C 156.821 1061.3 142.063 1081.36 120.586 1084.64 C 99.0877 1087.92 79.0028 1073.14 75.7362 1051.64 C 72.4697 1030.14 87.2598 1010.07 108.762 1006.82 z"/>
<path transform="translate(0,0)" fill="rgb(255,255,255)" d="M 1927.95 1007.03 C 1949.38 1004.81 1968.59 1020.31 1970.94 1041.73 C 1973.3 1063.15 1957.92 1082.45 1936.52 1084.95 C 1914.92 1087.46 1895.41 1071.92 1893.03 1050.3 C 1890.65 1028.69 1906.32 1009.27 1927.95 1007.03 z"/>
<path transform="translate(0,0)" fill="rgb(13,137,110)" d="M 781.156 1532.32 L 807.887 1387.67 C 812.748 1360.97 816.575 1333.75 822.137 1307.19 C 829.696 1360.99 841.151 1416.05 851.657 1469.36 L 879.716 1616.29 C 889.506 1564.73 898.227 1512.96 905.872 1461.04 C 908.37 1445.12 911.946 1427.69 914.017 1411.98 C 916.847 1419.49 921.13 1446.89 922.437 1456.05 C 926.43 1484.03 933.369 1517.91 934.458 1545.94 C 938.644 1533.41 943.196 1505.75 945.971 1491.83 L 964.94 1399.85 C 971.638 1429.33 977.391 1458.61 982.552 1488.4 C 985.16 1503.45 989.011 1520.53 990.878 1535.5 C 1004.04 1495.28 1010.87 1448.38 1024.24 1408.14 C 1029.06 1444.31 1038.54 1480.66 1043.24 1516.4 C 1046.55 1499.12 1048.15 1481.7 1051.19 1464.45 C 1059.15 1419.27 1066.68 1374.18 1072.39 1328.64 C 1073.16 1322.53 1074.21 1314.67 1076.17 1308.97 C 1078.84 1339.62 1089.79 1388.59 1095.52 1420.73 C 1102.18 1460.05 1109.32 1499.28 1116.95 1538.42 C 1120.72 1558.22 1124.4 1579.58 1129.2 1599.01 C 1144.18 1522.26 1160.78 1434.79 1168.87 1357.4 C 1177.48 1413.59 1187.39 1469.58 1198.61 1525.31 C 1203.37 1510.46 1207.38 1492.99 1211.26 1477.75 C 1216.56 1457.64 1221.54 1437.44 1226.21 1417.17 C 1229.34 1403.04 1232.54 1384.73 1236.17 1371.17 C 1241.9 1419.53 1259.59 1473.57 1265.69 1524.55 C 1270.51 1509.24 1274.03 1492.73 1278.25 1477.09 C 1283.51 1458.17 1289.13 1439.35 1295.1 1420.64 L 1310.19 1486.87 C 1312.96 1498.82 1316.75 1516.94 1320.71 1528.3 C 1325.63 1518.45 1330.51 1508.23 1336.13 1498.78 C 1399.25 1498.47 1461.88 1500.07 1524.98 1500.12 C 1532.29 1500.89 1547.05 1501 1552.52 1501.89 C 1483.1 1502.34 1413.7 1503.7 1344.31 1505.96 C 1337.21 1523.04 1322.69 1548.27 1313.59 1565.27 C 1310.27 1543.34 1306.02 1522.26 1300.59 1500.75 C 1298.62 1492.94 1296.14 1480.45 1293.3 1473.21 C 1284.95 1512.72 1272.21 1551.21 1265.92 1592.72 L 1235.48 1438.67 C 1228.92 1472.46 1220.38 1505.31 1212.47 1538.76 C 1207.27 1560.69 1204.35 1584.47 1198.77 1606.23 C 1192.64 1574.62 1188.74 1542.42 1181.53 1510.92 C 1177.55 1493.51 1175.08 1475.39 1170.1 1458.21 C 1168.6 1467.41 1166.89 1476.68 1164.96 1485.8 C 1152.67 1543.87 1143.54 1602.62 1134.44 1661.26 C 1132.73 1672.31 1130.96 1683.2 1130.13 1694.36 C 1127.41 1667.14 1120.17 1635.41 1115.27 1608.08 L 1076.78 1401.31 C 1073.63 1432.42 1064.63 1476.15 1059.17 1508.48 L 1049.6 1564.06 C 1047.68 1575.43 1045.85 1589.6 1043 1600.45 C 1036.68 1558.88 1028 1518.14 1021.89 1477.66 C 1009.58 1513.61 1001.07 1553.38 990.928 1590.51 C 986.529 1576.72 983.242 1557.46 980.27 1543.13 L 965.329 1472.56 C 952.743 1519.25 944.625 1570.2 934 1618.05 C 930.63 1592.29 926.697 1567.98 922.067 1542.49 C 919.315 1527.34 917.655 1512.46 914.547 1497.06 C 904.728 1546.56 898.457 1597.69 887.434 1647.18 C 884.486 1660.42 882.99 1675.04 879.225 1687.98 C 869.231 1642.4 860.395 1589.16 851.5 1542.65 C 842.2 1494.01 828.498 1434.93 822.064 1386.69 C 817.478 1406.07 813.525 1431.76 809.815 1451.73 C 800.459 1502.9 791.426 1554.12 782.716 1605.4 C 778.144 1584.61 774.637 1562.82 770.242 1541.86 C 765.12 1517.45 759.705 1494.58 757.021 1469.72 C 744.958 1515.29 742.407 1568.73 729.184 1614.51 C 719.886 1569.09 706.176 1526.59 698.02 1478.92 C 690.152 1485.62 683.414 1494.65 674.513 1502.24 L 669.902 1497.71 C 680.681 1485.97 691.91 1474.04 702.439 1462.13 C 711.325 1486.23 721.191 1532.66 728.346 1558.83 C 733.132 1523.84 738.745 1488.96 745.179 1454.23 C 748.361 1436.26 752.714 1414.95 754.874 1396.95 C 759.079 1409.28 763.38 1436 765.795 1449.45 C 770.697 1477.11 775.817 1504.74 781.156 1532.32 z"/>
<path transform="translate(0,0)" fill="rgb(55,148,138)" d="M 1570.63 1559.85 C 1587.6 1577.3 1604.95 1594.38 1622.66 1611.08 C 1611.76 1622.69 1597.69 1635.24 1585.8 1645.97 C 1487.36 1733.56 1369.86 1797 1242.63 1831.28 C 1193.03 1844.27 1142.37 1852.77 1091.24 1856.66 C 1074.7 1857.79 1058.15 1858.71 1041.59 1859.43 L 1041.55 1789.06 C 1199.98 1785.74 1353.45 1733.24 1480.72 1638.83 C 1515.57 1612.75 1539.16 1589.46 1570.63 1559.85 z"/>
<path transform="translate(0,0)" fill="rgb(147,198,183)" d="M 477.266 1564.77 C 479.248 1565.23 503.332 1588.22 507.562 1591.97 C 641.075 1710.6 820.39 1788.29 1002.21 1788.9 C 1002.29 1812.51 1001.95 1836.11 1001.19 1859.71 C 986.456 1859.3 971.479 1857.94 956.757 1856.79 C 941.866 1855.42 926.991 1853.89 912.133 1852.2 C 761.907 1833.62 619.768 1773.77 501.49 1679.3 C 477.911 1660.71 444.156 1632.78 425.807 1609.55 C 443.784 1596.41 461.316 1576.04 477.266 1564.77 z"/>
<path transform="translate(0,0)" fill="rgb(55,148,138)" d="M 1041.95 189.567 C 1074.74 190.376 1112.94 192.6 1145.56 197.153 C 1287.96 217.465 1422.75 273.991 1537.05 361.317 C 1562.86 381.1 1598.72 413.078 1622.18 435.475 C 1614.13 443.649 1604.96 451.821 1596.5 459.648 C 1588.11 467.061 1578.25 477.666 1570.41 485.867 C 1542.42 459.572 1516.29 434.095 1485.46 410.911 C 1356.96 315.531 1202.13 262.167 1042.15 258.117 L 1041.95 189.567 z"/>
<path transform="translate(0,0)" fill="rgb(147,198,183)" d="M 987.039 189.418 C 991.568 189.031 998.029 189.102 1002.75 189.013 C 1002.08 212.458 1002.34 235.879 1001.09 259.302 C 997.758 259.347 994.425 259.445 991.094 259.596 C 832.529 266.209 679.82 321.358 553.62 417.587 C 530.119 435.59 498.436 462.106 478.428 483.871 C 474.428 478.844 468.261 472.564 463.759 467.722 C 453.762 457.687 439.773 444.21 431.093 433.593 C 472.478 388.897 530.277 345.384 582.282 313.473 C 710.542 234.768 837.277 197.927 987.039 189.418 z"/>
<path transform="translate(0,0)" fill="rgb(147,198,183)" d="M 403.342 462.639 C 407.353 464.951 447.21 505.064 453.064 510.893 C 370.937 605.11 314.567 702.544 282.859 823.763 C 268.66 878.046 262.736 908.486 259.08 963.936 L 238.5 963.79 C 221.891 963.532 205.268 964.226 188.68 963.259 C 191.835 912.102 203.075 857.332 215.791 807.733 C 250.807 671.154 311.098 567.77 403.342 462.639 z"/>
<path transform="translate(0,0)" fill="rgb(55,148,138)" d="M 1649.2 463.793 C 1655.99 470.223 1673.4 493.389 1680.59 502.047 C 1783.83 626.457 1849.94 803.55 1861.17 963.706 C 1844.81 963.22 1828.43 963.007 1812.06 963.07 L 1791.14 963.428 C 1782.6 811.164 1718.21 658.609 1621.56 542.674 C 1614.82 534.592 1603.99 523.244 1598.92 514.673 C 1614.79 497.608 1632.81 481.222 1649.2 463.793 z"/>
<path transform="translate(0,0)" fill="rgb(55,148,138)" d="M 1787.63 1115.99 C 1810.73 1115.37 1836.08 1115.81 1859.28 1115.93 C 1853.22 1150.09 1849.31 1184.88 1841.1 1218.78 C 1808.25 1350.53 1744.8 1472.68 1655.91 1575.31 C 1652.89 1578.78 1649.39 1582.31 1646.2 1585.66 C 1635.06 1575.82 1603.46 1546.01 1595.94 1534.95 C 1700.9 1418 1767.76 1271.87 1787.63 1115.99 z"/>
<path transform="translate(0,0)" fill="rgb(147,198,183)" d="M 189.504 1115.99 C 213.603 1116.21 237.704 1116.27 261.805 1116.19 C 277.538 1258.49 339.748 1400.33 430.896 1510.97 C 437.909 1519.48 445.322 1527.87 452.522 1536.25 C 445.114 1544.67 436.009 1552.59 427.702 1560.21 C 418.775 1568.48 411.02 1576.95 401.646 1585.11 C 282.316 1458.72 211.575 1287.01 189.504 1115.99 z"/>
<path transform="translate(0,0)" fill="rgb(55,148,138)" d="M 669.902 1497.71 L 674.513 1502.24 C 668.77 1504.19 565.176 1501.94 553.474 1501.93 L 563.401 1500.09 C 598.16 1499.95 635.07 1498.63 669.902 1497.71 z"/>
<path transform="translate(0,0)" fill="rgb(163,190,189)" d="M 1524.98 1500.12 C 1544.97 1499.3 1566.72 1500.1 1586.83 1500.08 C 1593.42 1500.08 1613.15 1500.19 1618.4 1501.04 C 1610.45 1501.78 1558.55 1502.93 1552.52 1501.89 C 1547.05 1501 1532.29 1500.89 1524.98 1500.12 z"/>
<path transform="translate(0,0)" fill="rgb(163,190,189)" d="M 553.474 1501.93 C 549.333 1502.46 524.603 1502.41 521.354 1501.11 C 535.352 1500.25 549.378 1499.91 563.401 1500.09 L 553.474 1501.93 z"/>
<path transform="translate(0,0)" fill="rgb(163,190,189)" d="M 500.753 1501.49 C 505.462 1501.07 514.091 1500.42 518.473 1501.51 C 515.28 1503.06 504.734 1501.81 500.753 1501.49 z"/>
</svg>